<svg width="36" height="36" viewBox="0 0 36 36" fill="none" xmlns="http://www.w3.org/2000/svg">
<path d="M24.0989 13.4922C24.5382 13.0528 24.5382 12.3405 24.0989 11.9012C23.6595 11.4618 22.9472 11.4618 22.5079 11.9012L18.0001 16.409L13.4923 11.9012C13.0529 11.4618 12.3406 11.4618 11.9013 11.9012C11.462 12.3405 11.462 13.0528 11.9013 13.4922L16.4091 17.9999L11.9013 22.5078C11.4619 22.9471 11.4619 23.6594 11.9013 24.0988C12.3406 24.5381 13.0529 24.5381 13.4923 24.0988L18.0001 19.5909L22.5079 24.0988C22.9472 24.5381 23.6595 24.5381 24.0989 24.0988C24.5382 23.6594 24.5382 22.9471 24.0989 22.5078L19.5911 17.9999L24.0989 13.4922Z" fill="#1DB954"/>
</svg>
