<svg width="46" height="44" viewBox="0 0 46 44" fill="none" xmlns="http://www.w3.org/2000/svg">
<path d="M4.12585 0.749915L22.9819 19.6059L41.8741 0.713715C42.2108 0.374216 42.6409 0.142377 43.1097 0.0477249C43.5784 -0.0469274 44.0648 -0.000115755 44.5069 0.182171C44.949 0.364458 45.3269 0.674004 45.5928 1.07144C45.8586 1.46896 46.0003 1.93649 46 2.41472V40.8024C46 41.4423 45.7457 42.056 45.2933 42.5084C44.8408 42.961 44.2271 43.2152 43.5872 43.2152H2.41278C1.77281 43.2152 1.15911 42.961 0.706642 42.5084C0.254176 42.056 9.66132e-07 41.4423 9.66132e-07 40.8024V2.45092C-0.000426938 1.97269 0.141294 1.50516 0.407194 1.10764C0.673008 0.710119 1.05102 0.400574 1.49313 0.218373C1.93524 0.0360859 2.42151 -0.0107273 2.89032 0.083925C3.35905 0.178577 3.78909 0.41033 4.12585 0.749915Z" fill="white"/>
</svg>
