<svg width="520" height="380" viewBox="0 0 520 380" fill="none" xmlns="http://www.w3.org/2000/svg">
<rect width="520" height="380" fill="#2A3950"/>
<rect x="110" y="141" width="300" height="98.1601" fill="#2A3950"/>
<g clip-path="url(#clip0_353_103)">
<path d="M191.092 224.174C184.928 230.34 174.934 230.34 168.77 224.174C168.675 224.078 168.58 223.979 168.484 223.883L154.716 210.099L154.613 209.999L148.465 203.845C147.956 203.336 147.487 202.798 147.061 202.237C142.372 196.083 142.806 187.266 148.373 181.602C149.527 180.432 151.416 180.249 152.688 181.288C154.156 182.494 154.239 184.663 152.927 185.973C152.72 186.184 152.525 186.399 152.338 186.622C152.275 186.701 152.211 186.777 152.151 186.86C151.599 187.565 151.161 188.333 150.839 189.133C150.74 189.38 150.652 189.627 150.577 189.878C150.565 189.909 150.553 189.941 150.545 189.977C150.481 190.196 150.425 190.415 150.378 190.638C150.33 190.861 150.286 191.088 150.25 191.315C150.207 191.617 150.179 191.92 150.167 192.222C150.159 192.314 150.159 192.409 150.159 192.505C150.159 192.56 150.155 192.62 150.155 192.676C150.155 192.736 150.159 192.795 150.159 192.851C150.159 192.947 150.159 193.038 150.167 193.13C150.167 193.166 150.171 193.201 150.171 193.237C150.171 193.249 150.171 193.265 150.175 193.281C150.179 193.38 150.187 193.48 150.199 193.583C150.203 193.659 150.215 193.731 150.223 193.806C150.235 193.882 150.242 193.958 150.25 194.037C150.27 194.157 150.29 194.272 150.31 194.392C150.318 194.423 150.322 194.455 150.326 194.487C150.346 194.583 150.37 194.678 150.39 194.778C150.402 194.829 150.413 194.881 150.425 194.933C150.441 195.005 150.465 195.076 150.485 195.148C150.505 195.223 150.521 195.299 150.545 195.375C150.573 195.466 150.604 195.562 150.636 195.653C150.652 195.705 150.668 195.757 150.684 195.809C150.724 195.92 150.763 196.028 150.807 196.135C150.823 196.171 150.835 196.207 150.847 196.242C150.891 196.35 150.942 196.461 150.99 196.569C151.006 196.601 151.018 196.633 151.03 196.664C151.09 196.792 151.153 196.915 151.213 197.039C151.221 197.051 151.229 197.066 151.237 197.082C151.376 197.345 151.527 197.6 151.69 197.851C151.698 197.867 151.706 197.878 151.714 197.89C151.778 197.986 151.845 198.081 151.913 198.173C151.937 198.209 151.96 198.245 151.984 198.281C152.155 198.511 152.338 198.738 152.533 198.957C152.553 198.977 152.573 199.001 152.593 199.025C152.688 199.128 152.788 199.232 152.887 199.335C152.903 199.347 152.915 199.363 152.927 199.375C152.927 199.375 152.959 199.407 152.975 199.423L162.376 208.833L173.236 219.704C178.51 224.982 188.448 222.733 189.748 212.961C190.011 210.998 189.342 209.02 187.943 207.619L182.566 202.237L177.698 197.365C177.698 197.365 177.69 197.357 177.67 197.337C177.651 197.317 177.635 197.301 177.615 197.281C176.78 196.402 176.481 195.136 176.827 193.962C177.352 192.194 177.663 190.351 177.742 188.469C178.112 188.839 178.422 189.153 178.681 189.408L178.808 189.535C178.848 189.579 178.887 189.615 178.923 189.655C178.999 189.726 179.066 189.794 179.126 189.854C179.19 189.917 179.249 189.977 179.293 190.025C179.357 190.089 179.711 190.443 179.711 190.443L190.802 201.545L191.092 201.831C197.252 208.001 197.252 218.004 191.092 224.174V224.174Z" fill="#FA0476"/>
<path d="M190.997 178.315C190.901 178.411 190.802 178.506 190.706 178.602L179.293 190.026C179.249 189.978 179.19 189.918 179.126 189.855C179.066 189.795 178.999 189.727 178.923 189.656C178.887 189.616 178.848 189.58 178.808 189.536L178.681 189.409C178.422 189.154 178.112 188.84 177.742 188.47C177.75 188.195 177.762 187.924 177.766 187.65V187.494C177.77 186.519 177.706 185.56 177.587 184.616C177.456 183.589 177.822 182.562 178.553 181.83L186.531 173.845C191.542 168.83 189.764 159.603 181.202 157.577C178.549 156.948 175.762 157.819 173.833 159.75L168.508 165.084C167.943 165.649 167.195 165.936 166.452 165.936C165.752 165.936 165.052 165.685 164.495 165.179C163.064 163.878 163.012 161.645 164.376 160.279L168.389 156.263L168.675 155.973C174.839 149.807 184.833 149.807 190.997 155.973C197.157 162.142 197.157 172.145 190.997 178.315V178.315Z" fill="#6ED29D"/>
<path d="M177.642 188.37C177.674 188.402 177.706 188.434 177.738 188.466C177.706 188.434 177.674 188.402 177.642 188.37Z" fill="#3D9546"/>
<path d="M165.656 198.555C164.506 199.725 162.613 199.904 161.345 198.866C159.873 197.663 159.794 195.49 161.102 194.18C161.309 193.969 161.504 193.755 161.691 193.532C161.754 193.452 161.818 193.376 161.878 193.293C162.43 192.588 162.868 191.82 163.19 191.02C163.289 190.773 163.377 190.526 163.452 190.276C163.464 190.244 163.476 190.212 163.484 190.176C163.548 189.957 163.604 189.738 163.651 189.515C163.699 189.292 163.743 189.065 163.778 188.839C163.822 188.536 163.85 188.234 163.862 187.931C163.87 187.839 163.87 187.744 163.87 187.648C163.87 187.593 163.874 187.533 163.874 187.477C163.874 187.418 163.87 187.358 163.87 187.302C163.87 187.207 163.87 187.115 163.862 187.023C163.862 186.988 163.858 186.952 163.858 186.916C163.858 186.904 163.858 186.888 163.858 186.872C163.854 186.773 163.846 186.673 163.834 186.57C163.83 186.494 163.818 186.422 163.81 186.347C163.798 186.271 163.79 186.196 163.782 186.116C163.763 185.997 163.743 185.881 163.723 185.762C163.715 185.73 163.711 185.698 163.707 185.666C163.687 185.571 163.663 185.475 163.643 185.376C163.631 185.324 163.619 185.272 163.607 185.22C163.592 185.149 163.568 185.077 163.548 185.005C163.528 184.93 163.512 184.854 163.488 184.778C163.46 184.687 163.429 184.591 163.397 184.5C163.381 184.448 163.365 184.396 163.349 184.345C163.309 184.233 163.269 184.126 163.226 184.018C163.21 183.982 163.198 183.947 163.186 183.911C163.142 183.803 163.091 183.692 163.043 183.584C163.027 183.552 163.015 183.521 163.003 183.489C162.943 183.361 162.88 183.238 162.82 183.115C162.812 183.103 162.804 183.087 162.796 183.071C162.657 182.808 162.506 182.553 162.343 182.303C162.335 182.287 162.327 182.275 162.319 182.263C162.255 182.167 162.188 182.072 162.12 181.98C162.096 181.944 162.072 181.908 162.049 181.873C161.878 181.642 161.695 181.415 161.5 181.196C161.48 181.176 161.46 181.152 161.44 181.128C161.345 181.025 161.245 180.921 161.146 180.818C161.13 180.806 161.118 180.79 161.106 180.778C161.106 180.778 161.074 180.746 161.058 180.73L151.661 171.324L151.582 171.245L140.797 160.449C135.523 155.171 125.585 157.42 124.285 167.192C124.022 169.155 124.69 171.133 126.09 172.534L136.335 182.788L136.366 182.82C137.245 183.7 137.563 184.997 137.209 186.192C136.685 187.959 136.374 189.802 136.295 191.685C136.203 191.593 136.112 191.502 136.028 191.422C135.941 191.334 135.861 191.251 135.782 191.175C135.627 191.016 135.484 190.873 135.356 190.745C135.265 190.658 135.185 190.578 135.11 190.502C135.074 190.463 135.038 190.427 135.006 190.395C134.971 190.363 134.939 190.331 134.911 190.299C134.847 190.236 134.788 190.176 134.74 190.132C134.676 190.065 134.322 189.71 134.322 189.71L123.231 178.609L122.941 178.322C116.777 172.152 116.777 162.149 122.937 155.979C129.101 149.814 139.094 149.814 145.259 155.979C145.354 156.075 145.449 156.174 145.545 156.27L165.564 176.308C166.073 176.817 166.542 177.355 166.968 177.916C171.661 184.074 171.223 192.891 165.656 198.555V198.555Z" fill="#FDB800"/>
<path d="M149.654 219.88L145.645 223.892L145.359 224.182C139.195 230.348 129.201 230.348 123.037 224.182C116.877 218.013 116.877 208.01 123.037 201.84C123.132 201.744 123.232 201.649 123.327 201.553L134.737 190.133C134.784 190.177 134.844 190.237 134.908 190.3C134.935 190.332 134.967 190.364 135.003 190.396C135.035 190.428 135.071 190.463 135.106 190.503C135.182 190.579 135.262 190.658 135.353 190.746C135.48 190.873 135.623 191.017 135.778 191.176L136.025 191.423C136.109 191.506 136.2 191.598 136.291 191.689C136.28 191.96 136.268 192.231 136.268 192.505V192.661C136.264 193.636 136.327 194.595 136.447 195.539C136.578 196.566 136.212 197.593 135.48 198.325L127.503 206.31C122.492 211.325 124.266 220.552 132.828 222.582C135.484 223.207 138.268 222.339 140.197 220.409L145.526 215.075C146.09 214.51 146.838 214.223 147.582 214.223C148.282 214.223 148.981 214.474 149.538 214.979C150.966 216.277 151.022 218.51 149.654 219.88V219.88Z" fill="#A361FF"/>
<path d="M136.389 191.785C136.356 191.753 136.324 191.721 136.292 191.689C136.324 191.721 136.356 191.753 136.389 191.785Z" fill="#3D9546"/>
<path d="M144.333 217.374C144.333 219.117 145.745 220.534 147.49 220.534C149.236 220.534 150.648 219.121 150.648 217.374C150.648 215.626 149.236 214.213 147.49 214.213C145.749 214.213 144.333 215.626 144.333 217.374Z" stroke="#706F6F" stroke-width="0.75" stroke-miterlimit="10"/>
</g>
<path d="M226.342 172.441C229.4 172.441 231.77 173.088 233.45 174.381C235.13 175.631 236.293 177.334 236.939 179.49C237.629 181.603 237.973 183.974 237.973 186.604V203.935C237.973 204.884 237.65 205.682 237.004 206.328C236.401 206.932 235.647 207.234 234.742 207.234C233.794 207.234 233.019 206.932 232.416 206.328C231.813 205.682 231.511 204.884 231.511 203.935V186.668C231.511 185.116 231.296 183.737 230.865 182.53C230.434 181.279 229.68 180.288 228.603 179.555C227.569 178.779 226.105 178.391 224.209 178.391C222.443 178.391 220.892 178.779 219.556 179.555C218.221 180.288 217.166 181.279 216.39 182.53C215.658 183.737 215.292 185.116 215.292 186.668V203.935C215.292 204.884 214.968 205.682 214.322 206.328C213.719 206.932 212.965 207.234 212.061 207.234C211.113 207.234 210.337 206.932 209.734 206.328C209.131 205.682 208.83 204.884 208.83 203.935V176.515C208.83 175.567 209.131 174.791 209.734 174.187C210.337 173.54 211.113 173.217 212.061 173.217C212.965 173.217 213.719 173.54 214.322 174.187C214.968 174.791 215.292 175.567 215.292 176.515V180.137L214.128 180.783C214.43 179.835 214.947 178.886 215.679 177.938C216.455 176.946 217.381 176.041 218.458 175.222C219.535 174.359 220.741 173.691 222.077 173.217C223.412 172.7 224.834 172.441 226.342 172.441Z" fill="white"/>
<path d="M261.495 207.587C257.919 207.587 254.817 206.854 252.189 205.389C249.561 203.88 247.515 201.832 246.05 199.245C244.629 196.615 243.918 193.619 243.918 190.256C243.918 186.462 244.672 183.228 246.18 180.555C247.731 177.839 249.734 175.769 252.189 174.347C254.645 172.881 257.251 172.148 260.008 172.148C262.119 172.148 264.122 172.579 266.018 173.441C267.913 174.261 269.594 175.425 271.058 176.934C272.566 178.399 273.751 180.146 274.612 182.172C275.474 184.155 275.926 186.332 275.969 188.704C275.926 189.566 275.582 190.277 274.936 190.838C274.289 191.398 273.535 191.678 272.674 191.678H247.537L245.986 186.181H270.283L269.055 187.346V185.729C268.969 184.22 268.474 182.905 267.569 181.784C266.664 180.62 265.544 179.736 264.209 179.132C262.873 178.486 261.473 178.162 260.008 178.162C258.716 178.162 257.467 178.378 256.26 178.809C255.097 179.197 254.042 179.844 253.094 180.749C252.189 181.655 251.457 182.862 250.897 184.371C250.38 185.837 250.121 187.669 250.121 189.868C250.121 192.239 250.617 194.308 251.608 196.076C252.599 197.844 253.934 199.223 255.614 200.215C257.294 201.163 259.147 201.638 261.171 201.638C262.765 201.638 264.079 201.487 265.113 201.185C266.147 200.84 267.009 200.43 267.698 199.956C268.387 199.482 268.99 199.029 269.507 198.598C270.154 198.21 270.8 198.016 271.446 198.016C272.221 198.016 272.868 198.296 273.385 198.857C273.902 199.374 274.16 199.999 274.16 200.732C274.16 201.681 273.686 202.543 272.738 203.319C271.575 204.44 269.96 205.432 267.892 206.294C265.867 207.156 263.735 207.587 261.495 207.587Z" fill="white"/>
<path d="M285.227 172.734C286.304 172.734 287.187 173.187 287.876 174.092L309.912 201.901C310.385 202.461 310.622 203.108 310.622 203.841C310.622 204.703 310.278 205.458 309.588 206.104C308.899 206.751 308.145 207.074 307.327 207.074C306.293 207.074 305.41 206.622 304.677 205.716L282.642 177.908C282.168 177.348 281.931 176.701 281.931 175.968C281.931 175.063 282.254 174.308 282.9 173.704C283.59 173.058 284.365 172.734 285.227 172.734ZM285.291 207.074C284.559 207.074 283.848 206.794 283.159 206.234C282.47 205.673 282.125 204.983 282.125 204.164C282.125 203.431 282.383 202.763 282.9 202.159L293.175 189.419L296.471 194.722L287.876 205.716C287.187 206.622 286.325 207.074 285.291 207.074ZM307.262 172.734C308.167 172.734 308.899 173.036 309.459 173.64C310.062 174.2 310.364 174.869 310.364 175.645C310.364 175.989 310.299 176.356 310.17 176.744C310.084 177.089 309.89 177.412 309.588 177.714L299.443 190.454L296.083 185.668L304.677 174.222C305.41 173.23 306.271 172.734 307.262 172.734Z" fill="white"/>
<path d="M341.902 172.441C342.806 172.441 343.56 172.764 344.163 173.411C344.81 174.015 345.133 174.791 345.133 175.739V192.747C345.133 197.231 343.883 200.745 341.385 203.289C338.886 205.789 335.354 207.04 330.787 207.04C326.264 207.04 322.753 205.789 320.254 203.289C317.799 200.745 316.571 197.231 316.571 192.747V175.739C316.571 174.791 316.872 174.015 317.475 173.411C318.079 172.764 318.854 172.441 319.802 172.441C320.706 172.441 321.46 172.764 322.063 173.411C322.71 174.015 323.033 174.791 323.033 175.739V192.747C323.033 195.55 323.679 197.641 324.971 199.02C326.307 200.4 328.245 201.09 330.787 201.09C333.372 201.09 335.332 200.4 336.668 199.02C338.003 197.641 338.671 195.55 338.671 192.747V175.739C338.671 174.791 338.972 174.015 339.575 173.411C340.179 172.764 340.954 172.441 341.902 172.441Z" fill="white"/>
<path d="M368.286 172.441C371.474 172.441 373.93 173.239 375.653 174.834C377.376 176.386 378.518 178.498 379.078 181.171L378.044 180.848L378.496 179.813C379.056 178.692 379.896 177.571 381.016 176.45C382.179 175.286 383.558 174.338 385.152 173.605C386.746 172.829 388.448 172.441 390.257 172.441C393.229 172.441 395.534 173.088 397.171 174.381C398.808 175.631 399.95 177.334 400.596 179.49C401.242 181.603 401.565 183.974 401.565 186.604V203.741C401.565 204.69 401.264 205.487 400.661 206.134C400.058 206.738 399.282 207.04 398.334 207.04C397.43 207.04 396.654 206.738 396.008 206.134C395.405 205.487 395.103 204.69 395.103 203.741V186.668C395.103 185.159 394.888 183.78 394.457 182.53C394.07 181.279 393.359 180.288 392.325 179.555C391.334 178.779 389.955 178.391 388.189 178.391C386.509 178.391 385.001 178.779 383.666 179.555C382.373 180.288 381.361 181.279 380.629 182.53C379.896 183.78 379.53 185.159 379.53 186.668V203.741C379.53 204.69 379.229 205.487 378.625 206.134C378.022 206.738 377.247 207.04 376.299 207.04C375.351 207.04 374.576 206.738 373.973 206.134C373.37 205.487 373.068 204.69 373.068 203.741V186.604C373.068 185.095 372.853 183.715 372.422 182.465C372.034 181.215 371.345 180.223 370.354 179.49C369.363 178.757 367.985 178.391 366.218 178.391C364.538 178.391 363.052 178.757 361.76 179.49C360.467 180.223 359.455 181.215 358.722 182.465C358.033 183.715 357.689 185.095 357.689 186.604V203.741C357.689 204.69 357.365 205.487 356.719 206.134C356.116 206.738 355.362 207.04 354.458 207.04C353.51 207.04 352.734 206.738 352.131 206.134C351.528 205.487 351.227 204.69 351.227 203.741V176.321C351.227 175.373 351.528 174.597 352.131 173.993C352.734 173.346 353.51 173.023 354.458 173.023C355.362 173.023 356.116 173.346 356.719 173.993C357.365 174.597 357.689 175.373 357.689 176.321V180.137L356.461 180.848C356.762 179.9 357.258 178.93 357.947 177.938C358.636 176.946 359.498 176.041 360.532 175.222C361.609 174.403 362.794 173.734 364.086 173.217C365.378 172.7 366.778 172.441 368.286 172.441Z" fill="white"/>
<defs>
<clipPath id="clip0_353_103">
<rect width="77.7903" height="77.8511" fill="white" transform="translate(118.117 151.155)"/>
</clipPath>
</defs>
</svg>
